{"title":"The Texas Chainsaw Massacre 2003 DVDRip Xvid AC3 LKRG","uid":6732278,"size":1134001755,"categoryP":"video","categoryS":"movies","magnet":"?xt=urn:btih:c602d00821315c287de59037d8af89cf63526804&amp;dn=The+Texas+Chainsaw+Massacre+2003+DVDRip+Xvid+AC3+LKRG&amp;tr=udp%3A%2F%2Ftracker.openbittorrent.com%3A80&amp;tr=udp%3A%2F%2Fopen.demonii.com%3A1337&amp;tr=udp%3A%2F%2Ftracker.coppersurfer.tk%3A6969&amp;tr=udp%3A%2F%2Fexodus.desync.com%3A6969","seeders":0,"leechers":0,"uploader":".BONE.","files":2,"time":1318203945,"description":"PLOT\n\nA group of friends passing through are stalked and hunted down by a deformed killer with a\nchainsaw in order to sustain his poor family who can only afford to eat what they kill.\n &lt;a href=&quot;\nhttp://www.imdb.com/title/tt0324216/&quot; rel=&quot;nofollow&quot; target=&quot;_NEW&quot;&gt;\nhttp://www.imdb.com/title/tt0324216/&lt;/a&gt;\n\n\nEncoded By .......: LKRG\nRuntime ..........: 1h 38mn\nFile Size ........: 1.06 GB\nResolution .......: 704 x 396\nIMDb URL .........: http://www.imdb.com/title/tt0324216/\nGenre ............: Horror,Mystery,Thriller\nLanguage .........: English\nSubtitles ........: None\nVideo\nID : 0\nFormat : MPEG-4 Visual\nFormat profile : Advanced Simple@L5\nFormat settings, BVOP : Yes\nFormat settings, QPel : No\nFormat settings, GMC : No warppoints\nFormat settings, Matrix : Default (H.263)\nCodec ID : XVID\nCodec ID/Hint : XviD\nDuration : 1h 38mn\nBit rate : 63.7 Kbps\nWidth : 704 pixels\nHeight : 396 pixels\nDisplay aspect ratio : 16:9\nFrame rate : 23.976 fps\nColor space : YUV\nChroma subsampling : 4:2:0\nBit depth : 8 bits\nScan type : Progressive\nCompression mode : Lossy\nBits/(Pixel*Frame) : 0.010\nStream size : 44.7 MiB (4%)\nWriting library : XviD 1.2.1 (UTC 2008-12-04)\nAudio\nID : 1\nFormat : AC-3\nFormat/Info : Audio Coding 3\nCodec ID : 2000\nDuration : 1h 38mn\nBit rate mode : Constant\nBit rate : 448 Kbps\nChannel(s) : 6 channels\nSampling rate : 48.0 KHz\nBit depth : 16 bits\nCompression mode : Lossy\nStream size : 315 MiB (29%)\nAlignment : Aligned on interleaves\n","torrent":{"xt":"urn:btih:c602d00821315c287de59037d8af89cf63526804","amp;dn":"The+Texas+Chainsaw+Massacre+2003+DVDRip+Xvid+AC3+LKRG","amp;tr":["udp%3A%2F%2Ftracker.openbittorrent.com%3A80","udp%3A%2F%2Fopen.demonii.com%3A1337","udp%3A%2F%2Ftracker.coppersurfer.tk%3A6969","udp%3A%2F%2Fexodus.desync.com%3A6969"],"infoHash":"c602d00821315c287de59037d8af89cf63526804","infoHashBuffer":{"type":"Buffer","data":[198,2,208,8,33,49,92,40,125,229,144,55,216,175,137,207,99,82,104,4]},"announce":[],"urlList":[]}}